# xmcd
# 
# Track frame offsets:
#     150
#     18972
#     36122
#     49547
#     67720
#     81645
#     102945
#     117167
#     129952
#     149792
# 
# Disc length: 2234
# 
# Revision: 5
# Processed by: cddbd v1.5.2PL0 Copyright (c) Steve Scherf et al.
# Submitted via: fre:ac v1.0.31
# 
DISCID=8208b80a
DTITLE=吾妻光良 and The Swinging Boppers - STOMPIN' and BOUNCIN'
DYEAR=1991
DGENRE=Blues
TTITLE0=齢には勝てないぜ
TTITLE1=NOBODY KNOWS YOU WHEN YOU ARE DOWN AND OUT
TTITLE2=誰がマンボに”ウッ!!”をつけた
TTITLE3=秋葉原
TTITLE4=俺の家は会社
TTITLE5=A COTTAGE FOR SALE ～物件に出物なし
TTITLE6=人間だって動物だい
TTITLE7=BLOODSHOT EYES
TTITLE8=夜まで眠りたい
TTITLE9=ほんじゃね
EXTD=THE GREAT VICTOR MASTERS 1990 - 1991
EXTT0=
EXTT1=
EXTT2=
EXTT3=
EXTT4=
EXTT5=
EXTT6=
EXTT7=
EXTT8=
EXTT9=
PLAYORDER=
